<?xml version="1.0" encoding="UTF-8" standalone="no"?>
<svg width="1200px" height="1200px" viewBox="0 0 1200 1200" version="1.1" xmlns="http://www.w3.org/2000/svg" xmlns:xlink="http://www.w3.org/1999/xlink" xmlns:sketch="http://www.bohemiancoding.com/sketch/ns">
    <!-- Generator: sketchtool 1.1.1 (155) - http://www.bohemiancoding.com/sketch -->
    <title>square</title>
    <description>Created with sketchtool.</description>
    <defs></defs>
    <g id="Page-1" stroke="none" stroke-width="1" fill="none" fill-rule="evenodd" sketch:type="MSPage">
        <g id="square" sketch:type="MSArtboardGroup" fill="#FFFFFF">
            <path d="M106.815887,896.231032 C106.815887,901.492772 107.692831,906.315962 109.446744,910.700745 C111.200658,915.085529 113.592322,918.912192 116.621809,922.180849 C119.651296,925.449506 123.278653,928.000614 127.50399,929.834251 C131.729327,931.667888 136.393073,932.584692 141.495366,932.584692 C146.916553,932.584692 151.779604,931.628027 156.084664,929.714667 C160.389724,927.801306 164.096804,925.210337 167.206014,921.94168 C170.315225,918.673023 172.706889,914.84636 174.381079,910.461577 C176.055269,906.076793 176.892352,901.333325 176.892352,896.231032 L176.892352,814.913633 C176.892352,809.333 175.776242,804.071338 173.543988,799.128491 C171.311735,794.185644 168.322154,789.402316 164.575157,784.778362 C160.82816,780.154408 156.563026,775.689968 151.779625,771.384908 C146.996225,767.079848 142.133174,762.854574 137.190327,758.708961 C131.2908,753.766114 125.431223,748.743619 119.611419,743.641325 C113.791616,738.539031 108.609676,733.117926 104.065446,727.377845 C99.5212157,721.637765 95.8539972,715.49916 93.0636803,708.961846 C90.2733635,702.424533 88.878226,695.169818 88.878226,687.197484 L88.878226,658.018888 C88.878226,650.365447 90.2733635,643.310038 93.0636803,636.852447 C95.8539972,630.394857 99.640799,624.894029 104.424199,620.349799 C109.2076,615.805568 114.828011,612.257933 121.285601,609.706786 C127.743191,607.155639 134.559435,605.880085 141.734535,605.880085 C149.387976,605.880085 156.443385,607.235362 162.900976,609.945955 C169.358566,612.656549 174.978977,616.363628 179.762377,621.067305 C184.545778,625.770982 188.252857,631.27181 190.883727,637.569954 C193.514598,643.868098 194.830013,650.684341 194.830013,658.018888 L194.830013,707.048496 L176.892352,707.048496 L176.892352,658.258057 C176.892352,652.996316 176.015408,648.173127 174.261494,643.788343 C172.507581,639.403559 170.115917,635.576897 167.08643,632.30824 C164.056943,629.039583 160.389724,626.488474 156.084664,624.654838 C151.779604,622.821201 147.15572,621.904396 142.212873,621.904396 C136.791686,621.904396 131.888774,622.861062 127.50399,624.774422 C123.119207,626.687782 119.412127,629.278752 116.38264,632.547409 C113.353153,635.816065 111.00135,639.642728 109.32716,644.027512 C107.65297,648.412296 106.815887,653.155763 106.815887,658.258057 L106.815887,687.197484 C106.815887,693.097011 108.01172,698.6377 110.40342,703.819717 C112.79512,709.001734 115.944145,713.944507 119.850588,718.648184 C123.757032,723.35186 128.181611,727.856162 133.124458,732.161222 C138.067305,736.466282 143.0898,740.771278 148.192093,745.076338 C153.932174,749.859738 159.592446,754.802511 165.173079,759.904805 C170.753713,765.007098 175.736347,770.428204 180.121131,776.168285 C184.505914,781.908365 188.05355,787.967248 190.764143,794.345115 C193.474737,800.722982 194.830013,807.579086 194.830013,814.913633 L194.830013,896.470201 C194.830013,904.123641 193.434875,911.13919 190.644559,917.517057 C187.854242,923.894924 184.06744,929.395752 179.28404,934.019705 C174.500639,938.643659 168.880228,942.231155 162.422638,944.782302 C155.965048,947.333449 149.069082,948.609003 141.734535,948.609003 C134.081095,948.609003 127.025685,947.253727 120.568095,944.543133 C114.110504,941.83254 108.529954,938.165321 103.826277,933.541368 C99.1226002,928.917414 95.4553817,923.416586 92.8245115,917.038719 C90.1936414,910.660852 88.878226,903.804748 88.878226,896.470201 L88.878226,844.809736 L106.815887,844.809736 L106.815887,896.231032 Z M246.251309,755.360597 L316.088604,755.360597 L316.088604,771.384908 L246.251309,771.384908 L246.251309,927.801316 L321.828656,927.801316 L321.828656,943.825627 L228.313648,943.825627 L228.313648,680.261588 C228.313648,674.999848 228.433231,669.578742 228.672401,663.998108 C228.911571,658.417475 229.589209,653.076091 230.705336,647.973797 C231.821463,642.871504 233.655072,638.048314 236.206219,633.504084 C238.757366,628.959854 242.305001,624.973746 246.849231,621.545643 C251.393461,618.117539 257.213178,615.446848 264.308555,613.533487 C271.403932,611.620127 280.133507,610.663462 290.497541,610.663462 L315.849436,610.663462 L315.849436,626.687772 L295.520086,626.687772 C287.069412,626.687772 279.734975,627.405272 273.516554,628.840292 C267.298134,630.275312 262.156056,632.706837 258.090166,636.134941 C254.024275,639.563044 251.034695,644.22679 249.121335,650.126317 C247.207975,656.025844 246.251309,663.440003 246.251309,672.369017 L246.251309,755.360597 Z M438.064702,610.663462 L438.064702,626.687772 L393.818471,626.687772 L393.818471,943.825627 L375.880809,943.825627 L375.880809,626.687772 L331.395409,626.687772 L331.395409,610.663462 L438.064702,610.663462 Z M553.822411,943.825627 L535.884749,943.825627 L535.884749,805.346881 L469.395817,805.346881 L469.395817,943.825627 L451.458156,943.825627 L451.458156,680.261588 C451.458156,672.289254 451.777045,664.157596 452.414831,655.866368 C453.052618,647.575141 455.324699,640.08126 459.231143,633.384499 C463.137586,626.687739 469.276191,621.226772 477.647142,617.001435 C486.018092,612.776098 497.936553,610.663462 513.40288,610.663462 L553.822411,610.663462 L553.822411,943.825627 Z M518.903763,626.687772 C510.293643,626.687772 502.879483,627.405272 496.661063,628.840292 C490.442642,630.275312 485.300564,632.706837 481.234674,636.134941 C477.168784,639.563044 474.179203,644.22679 472.265843,650.126317 C470.352483,656.025844 469.395817,663.440003 469.395817,672.369017 L469.395817,789.32257 L535.884749,789.32257 L535.884749,626.687772 L518.903763,626.687772 Z M698.041209,706.09182 L680.103547,706.09182 L680.103547,626.687772 L659.29586,626.687772 C650.845186,626.687772 643.510749,627.405272 637.292329,628.840292 C631.073908,630.275312 625.93183,632.706837 621.86594,636.134941 C617.80005,639.563044 614.810469,644.22679 612.897109,650.126317 C610.983749,656.025844 610.027083,663.440003 610.027083,672.369017 L610.027083,896.231032 C610.027083,901.492772 610.904027,906.315962 612.65794,910.700745 C614.411854,915.085529 616.803518,918.912192 619.833005,922.180849 C622.862492,925.449506 626.489849,928.000614 630.715186,929.834251 C634.940523,931.667888 639.604268,932.584692 644.706562,932.584692 C650.127749,932.584692 654.9908,931.628027 659.29586,929.714667 C663.60092,927.801306 667.308,925.210337 670.41721,921.94168 C673.52642,918.673023 675.918085,914.84636 677.592275,910.461577 C679.266465,906.076793 680.103547,901.333325 680.103547,896.231032 L680.103547,786.691713 L649.729107,786.691713 L649.729107,770.667402 L698.041209,770.667402 L698.041209,896.470201 C698.041209,904.123641 696.646071,911.13919 693.855754,917.517057 C691.065438,923.894924 687.278636,929.395752 682.495235,934.019705 C677.711835,938.643659 672.091424,942.231155 665.633834,944.782302 C659.176243,947.333449 652.280278,948.609003 644.945731,948.609003 C637.29229,948.609003 630.236881,947.253727 623.77929,944.543133 C617.3217,941.83254 611.74115,938.165321 607.037473,933.541368 C602.333796,928.917414 598.666577,923.416586 596.035707,917.038719 C593.404837,910.660852 592.089422,903.804748 592.089422,896.470201 L592.089422,680.261588 C592.089422,674.999848 592.209005,669.578742 592.448175,663.998108 C592.687345,658.417475 593.364983,653.076091 594.48111,647.973797 C595.597237,642.871504 597.430846,638.048314 599.981993,633.504084 C602.53314,628.959854 606.080775,624.973746 610.625005,621.545643 C615.169236,618.117539 620.988952,615.446848 628.084329,613.533487 C635.179706,611.620127 643.909281,610.663462 654.273315,610.663462 L698.041209,610.663462 L698.041209,706.09182 Z M833.889098,943.825627 L815.951437,943.825627 L815.951437,805.346881 L749.462505,805.346881 L749.462505,943.825627 L731.524843,943.825627 L731.524843,680.261588 C731.524843,672.289254 731.843732,664.157596 732.481519,655.866368 C733.119305,647.575141 735.391386,640.08126 739.29783,633.384499 C743.204274,626.687739 749.342879,621.226772 757.713829,617.001435 C766.08478,612.776098 778.00324,610.663462 793.469568,610.663462 L833.889098,610.663462 L833.889098,943.825627 Z M798.97045,626.687772 C790.36033,626.687772 782.946171,627.405272 776.72775,628.840292 C770.50933,630.275312 765.367252,632.706837 761.301361,636.134941 C757.235471,639.563044 754.245891,644.22679 752.332531,650.126317 C750.419171,656.025844 749.462505,663.440003 749.462505,672.369017 L749.462505,789.32257 L815.951437,789.32257 L815.951437,626.687772 L798.97045,626.687772 Z M1089.56057,943.825627 L1071.6229,943.825627 L1071.6229,805.346881 L1005.13397,805.346881 L1005.13397,943.825627 L987.196311,943.825627 L987.196311,680.261588 C987.196311,672.289254 987.5152,664.157596 988.152987,655.866368 C988.790773,647.575141 991.062854,640.08126 994.969298,633.384499 C998.875741,626.687739 1005.01435,621.226772 1013.3853,617.001435 C1021.75625,612.776098 1033.67471,610.663462 1049.14104,610.663462 L1089.56057,610.663462 L1089.56057,943.825627 Z M1054.64192,626.687772 C1046.0318,626.687772 1038.61764,627.405272 1032.39922,628.840292 C1026.1808,630.275312 1021.03872,632.706837 1016.97283,636.134941 C1012.90694,639.563044 1009.91736,644.22679 1008.004,650.126317 C1006.09064,656.025844 1005.13397,663.440003 1005.13397,672.369017 L1005.13397,789.32257 L1071.6229,789.32257 L1071.6229,626.687772 L1054.64192,626.687772 Z M921.19506,779.679831 L966.45153,610.82789 L948.303351,610.82789 L912.089905,745.940294 L875.772292,610.439241 L857.624112,610.439241 L902.880583,779.291182 L903.04688,779.291182 L903.04688,942.952412 L921.19506,942.952412 L921.19506,779.679831 Z" id="SETAGAYA" stroke="#FFFFFF" stroke-width="4" sketch:type="MSShapeGroup"></path>
            <path d="M399.875063,298.656923 C399.47726,298.656923 399.078486,298.659744 398.681661,298.663901 C398.283301,298.668075 397.88561,298.676497 397.488258,298.684838 C396.694371,298.701504 395.905156,298.728428 395.11541,298.761607 C335.682721,301.258546 288.211641,350.277139 288.21164,410.320345 C288.21164,428.957592 292.786256,446.533651 300.871481,461.985615 C300.929832,462.097134 300.987236,462.209302 301.045955,462.320606 C301.05954,462.346358 301.074224,462.371634 301.087829,462.397374 C301.219554,462.646585 301.352067,462.896001 301.48563,463.144124 C301.65568,463.460017 301.829077,463.772224 302.002073,464.086284 C302.193831,464.434408 302.385974,464.780301 302.581327,465.126149 C302.724681,465.37994 302.868747,465.6343 303.014023,465.886856 C303.066058,465.977333 303.115279,466.06872 303.16756,466.159036 C303.340569,466.457863 303.515291,466.755276 303.690982,467.052343 C303.918767,467.437553 304.149656,467.821682 304.3819,468.203872 C304.489814,468.381433 304.601037,468.557363 304.709911,468.734274 C304.808452,468.89441 304.90371,469.056233 305.003028,469.215822 C305.212493,469.552373 305.42518,469.886642 305.638113,470.220793 C325.464801,501.334397 360.272393,521.983768 399.875063,521.983768 C439.476398,521.983768 474.278006,501.332643 494.105034,470.220793 C494.288551,469.932817 494.475413,469.645226 494.656373,469.355401 C494.685077,469.309436 494.711483,469.261832 494.74012,469.215822 C495.158251,468.544048 495.571238,467.866133 495.975397,467.184944 C496.177541,466.844238 496.376976,466.502059 496.575588,466.159036 C497.370517,464.786116 498.134335,463.394658 498.871678,461.985615 C506.957829,446.532961 511.538486,428.958742 511.538486,410.320345 C511.538486,350.277139 464.067404,301.258547 404.634717,298.761607 L404.634717,298.754628 C404.486146,298.748386 404.336761,298.746296 404.188063,298.74067 C403.94132,298.731281 403.69544,298.720536 403.448293,298.712754 C403.2179,298.705609 402.988097,298.69753 402.757375,298.691817 C402.736472,298.691287 402.71547,298.692336 402.694565,298.691817 C402.364673,298.683835 402.034149,298.675993 401.703552,298.67088 C401.575827,298.668905 401.447541,298.665455 401.319709,298.663901 C401.236214,298.662843 401.152006,298.664777 401.068466,298.663901 C400.670826,298.659924 400.273813,298.656923 399.875063,298.656923 Z M399.828739,354.616927 C399.63046,354.616927 399.431696,354.618334 399.233904,354.620406 C399.035348,354.622486 398.837124,354.626684 398.639069,354.630841 C398.243367,354.639148 397.849994,354.652568 397.456356,354.669106 C367.832951,355.91367 344.171645,380.346312 344.171645,410.274022 C344.171645,419.5635 346.451799,428.324045 350.481768,436.025863 C350.510852,436.081448 350.539464,436.137357 350.568732,436.192835 C350.575504,436.20567 350.582822,436.218269 350.589604,436.231099 C350.65526,436.355314 350.72131,436.479632 350.787882,436.603306 C350.872641,436.760759 350.959069,436.916374 351.045296,437.072913 C351.140875,437.24643 351.236646,437.418836 351.334017,437.591219 C351.40547,437.717718 351.477278,437.8445 351.549689,437.970383 C351.575625,438.01548 351.600158,438.061031 351.626217,438.106047 C351.712451,438.254994 351.799539,438.403235 351.88711,438.551304 C352.000646,438.743307 352.115729,438.93477 352.231488,439.125268 C352.285276,439.21377 352.340714,439.30146 352.394981,439.389639 C352.444097,439.469457 352.491577,439.550115 352.541081,439.62966 C352.645485,439.79741 352.751497,439.964021 352.85763,440.130574 C362.739969,455.638721 380.089334,465.931116 399.828739,465.931116 C419.567479,465.931116 436.913861,455.637847 446.79637,440.130574 C446.887841,439.987037 446.98098,439.843691 447.071177,439.699232 C447.085484,439.676321 447.098646,439.652593 447.11292,439.62966 C447.321331,439.294824 447.527179,438.956926 447.728626,438.617397 C447.829382,438.447577 447.928788,438.277023 448.027783,438.106047 C448.424005,437.421734 448.80472,436.728181 449.172238,436.025863 C453.202669,428.323701 455.485834,419.564073 455.485834,410.274022 C455.485834,380.346312 431.824527,355.913671 402.201123,354.669106 L402.201123,354.665627 C402.12707,354.662516 402.052611,354.661474 401.978495,354.65867 C401.855509,354.65399 401.732953,354.648635 401.609766,354.644756 C401.49493,354.641194 401.380388,354.637167 401.265388,354.63432 C401.254969,354.634056 401.244501,354.634578 401.234081,354.63432 C401.069651,354.630341 400.904906,354.626432 400.740124,354.623884 C400.676462,354.6229 400.612519,354.62118 400.548803,354.620406 C400.507186,354.619878 400.465214,354.620842 400.423575,354.620406 C400.225376,354.618423 400.027491,354.616927 399.828739,354.616927 Z" id="path5131-path-2" sketch:type="MSShapeGroup"></path>
            <path d="M1042.9885,259.659746 C1047.21083,259.659746 1050.76643,260.548645 1053.65539,262.32647 C1056.54436,264.104295 1058.71105,266.437655 1060.15553,269.32662 C1061.60002,272.215585 1062.32225,275.382288 1062.32225,278.826823 C1062.32225,282.271359 1061.54446,285.660286 1059.98886,288.993708 C1059.54441,289.660392 1058.98884,289.882617 1058.32216,289.660388 C1057.65548,289.43816 1057.09991,288.993711 1056.65546,288.327027 C1056.211,283.882465 1054.15542,279.937975 1050.48866,276.49344 C1046.8219,273.048905 1041.09961,271.326663 1033.32163,271.326663 C1024.87696,271.326663 1016.82131,273.54891 1009.15444,277.993472 C1001.48757,282.438034 993.709706,290.2159 985.820609,301.327305 C977.931512,312.438709 969.93142,327.43888 961.820095,346.328268 C953.70877,365.217656 944.986448,389.106817 935.652868,417.996469 C940.764114,417.77424 946.153065,417.663128 951.819881,417.663128 L969.320256,417.663128 C970.431396,418.107584 970.931402,418.718702 970.820288,419.496501 C970.709174,420.274299 969.653606,420.885417 967.653553,421.329873 C962.097851,421.552101 956.542232,421.774326 950.98653,421.996554 C945.430828,422.218782 939.764096,422.552119 933.986166,422.996576 C933.319482,425.441085 932.541695,427.663332 931.652783,429.663385 C922.541431,458.775265 913.207991,483.164432 903.652183,502.831618 C894.096376,522.498803 884.318486,538.276761 874.318222,550.165964 C864.317958,562.055167 854.151176,570.499707 843.817569,575.499839 C833.483963,580.499971 822.983844,583 812.316895,583 C804.76114,583 799.37219,581.333314 796.149883,577.999893 C792.927575,574.666472 791.316446,570.777538 791.316446,566.332977 C791.316446,564.332924 791.760895,562.166232 792.649808,559.832837 C793.53872,557.499443 794.649844,555.443864 795.983212,553.666039 C796.649897,552.999355 797.261015,552.888242 797.816585,553.332698 C798.372155,553.777155 798.649936,554.332716 798.649936,554.999401 C797.761024,556.777225 797.427687,558.832804 797.649915,561.166199 C797.872143,563.499594 798.816598,565.721842 800.483309,567.833009 C802.150019,569.944176 804.594492,571.721974 807.816799,573.166456 C811.039106,574.610939 815.20582,575.333169 820.317067,575.333169 C825.650541,575.333169 830.928379,574.666495 836.150739,573.333126 C841.373099,571.999758 846.595381,569.499729 851.817741,565.832966 C857.040101,562.166202 862.262383,556.999477 867.484743,550.332634 C872.707103,543.665791 878.096053,534.94347 883.651755,524.165407 C889.207458,513.387345 894.985301,500.331641 900.98546,484.997903 C906.985618,469.664164 913.207911,451.441734 919.652526,430.330066 C920.096982,429.218925 920.430319,428.163358 920.652547,427.163331 C920.874775,426.163305 921.208113,425.107737 921.652569,423.996597 C917.874691,424.441053 914.09687,424.941059 910.318993,425.496629 C906.541115,426.052199 902.763294,426.77443 898.985417,427.663342 C897.874276,427.441114 897.596495,426.885552 898.152066,425.99664 C898.707636,425.107727 899.707647,424.218828 901.15213,423.329916 C902.596613,422.441004 904.318854,421.607661 906.318907,420.829862 C908.31896,420.052064 910.20787,419.552058 911.985695,419.32983 C913.76352,419.107602 915.596874,418.940934 917.485813,418.82982 C919.374752,418.718706 921.319218,418.552037 923.319271,418.329809 C931.319482,394.329175 939.930692,372.606705 949.153157,353.161748 C958.375623,333.71679 968.097956,317.049933 978.320448,303.160677 C988.54294,289.271422 999.098616,278.549077 1009.98779,270.993322 C1020.87697,263.437567 1031.87709,259.659746 1042.9885,259.659746 Z M994.320791,416.663107 C1000.32095,416.663107 1004.76544,418.663129 1007.65441,422.663235 C1010.54337,426.663341 1011.98784,431.885622 1011.98784,438.330237 C1011.98784,445.885992 1010.54337,453.441634 1007.65441,460.997389 C1004.76544,468.553144 1001.09874,475.386555 996.654174,481.497828 C992.209612,487.6091 987.376224,492.553601 982.153864,496.331478 C976.931503,500.109356 972.098115,501.998266 967.653553,501.998266 C962.320079,501.998266 958.097809,499.887131 954.986615,495.664797 C951.875422,491.442464 950.319849,485.442395 950.319849,477.664412 C950.319849,471.442026 951.542085,464.775283 953.986594,457.663984 C956.431103,450.552685 959.708918,443.941499 963.820138,437.830226 C967.931358,431.718954 972.598077,426.663341 977.820437,422.663235 C983.042798,418.663129 988.54286,416.663107 994.320791,416.663107 Z M974.320363,491.664712 C977.653784,491.664712 980.931599,490.498032 984.153906,488.164637 C987.376214,485.831242 990.209579,482.720095 992.654088,478.831104 C995.098597,474.942112 997.043064,470.442061 998.487546,465.330815 C999.932029,460.219569 1000.65426,454.886175 1000.65426,449.330472 C1000.65426,442.66363 999.543136,437.385792 997.320855,433.4968 C995.098574,429.607809 991.431865,427.663342 986.320619,427.663342 C982.987198,427.663342 979.764939,428.830022 976.653746,431.163417 C973.542553,433.496812 970.820299,436.607959 968.486904,440.49695 C966.153509,444.385942 964.320155,448.941549 962.986787,454.163909 C961.653418,459.386269 960.986744,464.886332 960.986744,470.664262 C960.986744,484.664632 965.431239,491.664712 974.320363,491.664712 Z M1055.65544,425.99664 C1055.65544,429.330061 1055.3221,433.218994 1054.65542,437.663556 C1053.98873,442.108118 1053.09983,446.552613 1051.98869,450.997175 C1056.43325,440.330227 1061.3222,431.941242 1066.65567,425.829969 C1071.98915,419.718697 1077.76699,416.663107 1083.98938,416.663107 C1086.43389,416.663107 1088.65613,417.329781 1090.65619,418.663149 C1092.65624,419.996518 1093.65625,421.885428 1093.65625,424.329937 C1093.65625,426.107762 1092.98958,428.385566 1091.65621,431.163417 C1090.32284,433.941268 1088.98949,435.996847 1087.65612,437.330216 C1086.32275,438.219128 1085.65608,437.885791 1085.65608,436.330194 C1085.65608,432.552317 1083.10049,430.663406 1077.98925,430.663406 C1070.21126,430.663406 1063.21119,436.496806 1056.9888,448.163781 C1050.76641,459.830756 1044.87746,475.997607 1039.32175,496.664819 C1038.8773,498.8871 1037.37728,500.331561 1034.82166,500.998245 C1032.26603,501.664929 1030.09934,501.998266 1028.32152,501.998266 C1025.87701,501.998266 1025.32145,500.77603 1026.65482,498.331521 C1028.65487,493.664731 1030.54378,488.609118 1032.3216,483.16453 C1034.09943,477.719942 1035.82167,472.219879 1037.48838,466.664177 C1039.15509,461.108475 1040.544,455.663968 1041.65514,450.330494 C1042.76628,444.99702 1043.65518,440.108075 1044.32186,435.663513 C1045.21077,428.996671 1044.09965,425.663299 1040.98846,425.663299 C1039.21063,425.663299 1037.15505,426.663311 1034.82166,428.663363 C1032.48826,430.663416 1030.32157,432.996776 1028.32152,435.663513 C1027.43261,436.107969 1026.65482,436.052413 1025.98814,435.496843 C1025.32145,434.941273 1025.21034,434.219042 1025.65479,433.33013 C1028.98822,429.107796 1032.71048,425.274419 1036.8217,421.829884 C1040.93292,418.385348 1044.7663,416.663107 1048.32195,416.663107 C1053.21096,416.663107 1055.65544,419.774253 1055.65544,425.99664 Z" id="for" sketch:type="MSShapeGroup"></path>
            <path d="M531.920378,302.368184 L593.290377,302.368184 C610.189447,302.368184 624.395323,304.048183 635.908432,307.408232 C647.421541,310.768281 657.575654,316.154161 666.371076,323.566033 C678.724197,333.942655 688.310076,346.641473 695.128998,361.662869 C701.947921,376.684264 705.357332,392.743081 705.357332,409.8398 C705.357332,428.913019 701.602039,446.281247 694.091341,461.945005 C686.580644,477.608762 675.957119,490.381698 662.220448,500.264195 C653.128551,506.687818 643.295614,511.28311 632.721342,514.050209 C622.147071,516.817308 605.841195,518.200837 583.803227,518.200837 L531.920378,518.200837 L531.920378,302.368184 Z M552.821754,322.973087 L552.821754,497.892407 L596.848058,497.892407 C624.321399,497.892407 645.469626,490.184176 660.293371,474.76748 C675.117116,459.350785 682.528878,437.510795 682.528878,409.246853 C682.528878,395.114883 680.008879,382.070182 674.968806,370.112361 C669.928732,358.15454 662.714618,348.123956 653.326245,340.020309 C646.309673,333.89316 638.453205,329.520221 629.756608,326.901359 C621.060011,324.282498 608.410605,322.973087 591.80801,322.973087 L552.821754,322.973087 Z M755.757814,399.166757 L846.478682,399.166757 L846.478682,420.512843 L755.757814,420.512843 L755.757814,497.299461 L846.478682,497.299461 L846.478682,518.200837 L734.411727,518.200837 L734.411727,302.368184 L846.478682,302.368184 L846.478682,323.566033 L755.757814,323.566033 L755.757814,399.166757 Z" id="CODE-3" sketch:type="MSShapeGroup"></path>
            <path d="M255.906324,358.253424 C246.221477,344.813228 235.400306,334.93088 223.442484,328.606082 C211.484663,322.281284 197.847022,319.118932 182.529152,319.118932 C158.514684,319.118932 137.984105,328.013046 120.936798,345.80154 C103.88949,363.590035 95.3659647,384.738261 95.3659647,409.246853 C95.3659647,435.336645 103.840079,457.324871 120.788561,475.21219 C137.737043,493.09951 158.317034,502.043035 182.529152,502.043035 C197.451722,502.043035 210.941128,498.930096 222.997774,492.704123 C235.054421,486.478149 245.52971,477.188742 254.423957,464.835621 L279.624198,464.835621 C269.741702,483.217065 256.499354,497.422941 239.89676,507.453675 C223.294165,517.48441 204.665937,522.499702 184.011519,522.499702 C152.288704,522.499702 125.828715,511.67853 104.630759,490.035862 C83.4328033,468.393193 72.8339844,441.36497 72.8339844,408.95038 C72.8339844,393.83016 75.6998655,379.500754 81.4317137,365.961733 C87.1635619,352.422712 95.5635583,340.218012 106.631955,329.347265 C116.909752,319.069468 128.447394,311.287119 141.245227,305.999983 C154.043061,300.712847 167.903055,298.069319 182.825625,298.069319 C204.270643,298.069319 223.565929,303.306964 240.712061,313.78241 C257.858194,324.257857 271.421717,339.08138 281.403039,358.253424 L255.906324,358.253424 Z" id="CODE-2" sketch:type="MSShapeGroup"></path>
        </g>
    </g>
</svg>