<?xml version="1.0" encoding="UTF-8" standalone="no"?>
<svg width="1200px" height="1200px" viewBox="0 0 1200 1200" version="1.1" xmlns="http://www.w3.org/2000/svg" xmlns:xlink="http://www.w3.org/1999/xlink" xmlns:sketch="http://www.bohemiancoding.com/sketch/ns">
    <!-- Generator: sketchtool 1.1.1 (155) - http://www.bohemiancoding.com/sketch -->
    <title>wide</title>
    <description>Created with sketchtool.</description>
    <defs></defs>
    <g id="Page-1" stroke="none" stroke-width="1" fill="none" fill-rule="evenodd" sketch:type="MSPage">
        <g id="wide" sketch:type="MSArtboardGroup" fill="#FFFFFF">
            <path d="M821.804673,697.39612 C821.804673,699.098833 822.088455,700.659629 822.656026,702.078557 C823.223596,703.497484 823.997545,704.735802 824.977895,705.793548 C825.958245,706.851293 827.132067,707.676839 828.499397,708.270208 C829.866727,708.863578 831.375927,709.160258 833.027042,709.160258 C834.781352,709.160258 836.355048,708.850679 837.748176,708.23151 C839.141305,707.612342 840.340926,706.773898 841.347074,705.716152 C842.353222,704.658406 843.127171,703.420088 843.668943,702.001161 C844.210716,700.582234 844.481598,699.047235 844.481598,697.39612 L844.481598,671.081601 C844.481598,669.275693 844.120422,667.573006 843.398059,665.973488 C842.675696,664.37397 841.70826,662.826073 840.495722,661.329749 C839.283184,659.833426 837.902975,658.388722 836.355055,656.995593 C834.807134,655.602464 833.233438,654.235155 831.63392,652.893624 C829.724818,651.294106 827.828644,649.668814 825.94534,648.017698 C824.062037,646.366583 822.385148,644.612299 820.914623,642.754794 C819.444099,640.897289 818.257378,638.910821 817.354424,636.79533 C816.45147,634.679838 816,632.332194 816,629.752326 L816,620.310057 C816,617.833384 816.45147,615.550235 817.354424,613.460542 C818.257378,611.37085 819.482796,609.590767 821.030717,608.120243 C822.578638,606.649718 824.397417,605.501694 826.48711,604.676137 C828.576803,603.850579 830.782557,603.437806 833.104438,603.437806 C835.581111,603.437806 837.864259,603.876377 839.953952,604.753532 C842.043645,605.630687 843.862425,606.830308 845.410345,608.35243 C846.958266,609.874552 848.157886,611.654634 849.009243,613.692729 C849.860599,615.730825 850.286271,617.936579 850.286271,620.310057 L850.286271,636.176164 L844.481598,636.176164 L844.481598,620.387453 C844.481598,618.68474 844.197816,617.123943 843.630245,615.705016 C843.062675,614.286089 842.288726,613.047771 841.308376,611.990025 C840.328026,610.932279 839.141305,610.106734 837.748176,609.513364 C836.355048,608.919995 834.858747,608.623315 833.259229,608.623315 C831.504919,608.623315 829.918324,608.932894 828.499397,609.552062 C827.08047,610.171231 825.880849,611.009675 824.900499,612.067421 C823.920149,613.125167 823.1591,614.363484 822.617328,615.782412 C822.075555,617.201339 821.804673,618.736337 821.804673,620.387453 L821.804673,629.752326 C821.804673,631.661428 822.191648,633.454409 822.965608,635.131323 C823.739568,636.808237 824.758601,638.407731 826.022736,639.929853 C827.286871,641.451975 828.718676,642.909579 830.318194,644.302707 C831.917712,645.695836 833.543005,647.088943 835.19412,648.482072 C837.051625,650.029993 838.883304,651.629487 840.689211,653.280602 C842.495118,654.931717 844.107512,656.686001 845.526439,658.543506 C846.945366,660.401011 848.09339,662.361681 848.970545,664.425575 C849.8477,666.489469 850.286271,668.708122 850.286271,671.081601 L850.286271,697.473516 C850.286271,699.950189 849.834801,702.220438 848.931847,704.284333 C848.028893,706.348227 846.803475,708.128309 845.255554,709.624632 C843.707633,711.120955 841.888854,712.281878 839.799161,713.107436 C837.709468,713.932994 835.477916,714.345766 833.104438,714.345766 C830.627765,714.345766 828.344616,713.907196 826.254923,713.03004 C824.16523,712.152885 822.35935,710.966164 820.837228,709.469841 C819.315106,707.973517 818.128385,706.193435 817.277028,704.129541 C816.425672,702.065647 816,699.846994 816,697.473516 L816,680.756056 L821.804673,680.756056 L821.804673,697.39612 Z M866.926335,651.810085 L889.525863,651.810085 L889.525863,656.995593 L866.926335,656.995593 L866.926335,707.612345 L891.383359,707.612345 L891.383359,712.797854 L861.121661,712.797854 L861.121661,627.507852 C861.121661,625.805139 861.160359,624.050856 861.237755,622.244948 C861.315151,620.439041 861.534436,618.710555 861.895618,617.05944 C862.256799,615.408325 862.85016,613.847528 863.675718,612.377003 C864.501275,610.906479 865.649299,609.616564 867.119824,608.507221 C868.590349,607.397878 870.473624,606.533635 872.769706,605.914467 C875.065788,605.295299 877.890701,604.985719 881.244529,604.985719 L889.448468,604.985719 L889.448468,610.171227 L882.869838,610.171227 C880.135178,610.171227 877.761735,610.403412 875.749438,610.867788 C873.737142,611.332164 872.073152,612.119012 870.757419,613.228355 C869.441687,614.337699 868.474251,615.846899 867.855083,617.756001 C867.235914,619.665103 866.926335,622.064344 866.926335,624.953796 L866.926335,651.810085 Z M928.997643,604.985719 L928.997643,610.171227 L914.679448,610.171227 L914.679448,712.797854 L908.874775,712.797854 L908.874775,610.171227 L894.479185,610.171227 L894.479185,604.985719 L928.997643,604.985719 Z M966.457135,712.797854 L960.652462,712.797854 L960.652462,667.985775 L939.136472,667.985775 L939.136472,712.797854 L933.331799,712.797854 L933.331799,627.507852 C933.331799,624.927984 933.434992,622.296559 933.641381,619.613496 C933.847771,616.930434 934.583022,614.505394 935.847157,612.338306 C937.111292,610.171217 939.097761,608.404034 941.806622,607.036704 C944.515483,605.669374 948.372328,604.985719 953.377271,604.985719 L966.457135,604.985719 L966.457135,712.797854 Z M955.157371,610.171227 C952.371114,610.171227 949.971873,610.403412 947.959576,610.867788 C945.947279,611.332164 944.283289,612.119012 942.967557,613.228355 C941.651824,614.337699 940.684388,615.846899 940.06522,617.756001 C939.446052,619.665103 939.136472,622.064344 939.136472,624.953796 L939.136472,662.800266 L960.652462,662.800266 L960.652462,610.171227 L955.157371,610.171227 Z M1013.12671,635.866582 L1007.32204,635.866582 L1007.32204,610.171227 L1000.58861,610.171227 C997.853955,610.171227 995.480512,610.403412 993.468215,610.867788 C991.455919,611.332164 989.791929,612.119012 988.476196,613.228355 C987.160464,614.337699 986.193028,615.846899 985.57386,617.756001 C984.954691,619.665103 984.645112,622.064344 984.645112,624.953796 L984.645112,697.39612 C984.645112,699.098833 984.928893,700.659629 985.496464,702.078557 C986.064035,703.497484 986.837984,704.735802 987.818333,705.793548 C988.798683,706.851293 989.972505,707.676839 991.339835,708.270208 C992.707165,708.863578 994.216365,709.160258 995.86748,709.160258 C997.62179,709.160258 999.195486,708.850679 1000.58861,708.23151 C1001.98174,707.612342 1003.18136,706.773898 1004.18751,705.716152 C1005.19366,704.658406 1005.96761,703.420088 1006.50938,702.001161 C1007.05115,700.582234 1007.32204,699.047235 1007.32204,697.39612 L1007.32204,661.948914 L997.492789,661.948914 L997.492789,656.763406 L1013.12671,656.763406 L1013.12671,697.473516 C1013.12671,699.950189 1012.67524,702.220438 1011.77229,704.284333 C1010.86933,706.348227 1009.64391,708.128309 1008.09599,709.624632 C1006.54807,711.120955 1004.72929,712.281878 1002.6396,713.107436 C1000.54991,713.932994 998.318354,714.345766 995.944876,714.345766 C993.468203,714.345766 991.185054,713.907196 989.095361,713.03004 C987.005669,712.152885 985.199788,710.966164 983.677666,709.469841 C982.155544,707.973517 980.968823,706.193435 980.117467,704.129541 C979.26611,702.065647 978.840438,699.846994 978.840438,697.473516 L978.840438,627.507852 C978.840438,625.805139 978.879136,624.050856 978.956532,622.244948 C979.033928,620.439041 979.253213,618.710555 979.614395,617.05944 C979.975576,615.408325 980.568937,613.847528 981.394495,612.377003 C982.220052,610.906479 983.368076,609.616564 984.838601,608.507221 C986.309126,607.397878 988.192401,606.533635 990.488483,605.914467 C992.784565,605.295299 995.609478,604.985719 998.963306,604.985719 L1013.12671,604.985719 L1013.12671,635.866582 Z M1057.08744,712.797854 L1051.28276,712.797854 L1051.28276,667.985775 L1029.76677,667.985775 L1029.76677,712.797854 L1023.9621,712.797854 L1023.9621,627.507852 C1023.9621,624.927984 1024.06529,622.296559 1024.27168,619.613496 C1024.47807,616.930434 1025.21332,614.505394 1026.47746,612.338306 C1027.74159,610.171217 1029.72806,608.404034 1032.43692,607.036704 C1035.14578,605.669374 1039.00263,604.985719 1044.00757,604.985719 L1057.08744,604.985719 L1057.08744,712.797854 Z M1045.78767,610.171227 C1043.00141,610.171227 1040.60217,610.403412 1038.58988,610.867788 C1036.57758,611.332164 1034.91359,612.119012 1033.59786,613.228355 C1032.28213,614.337699 1031.31469,615.846899 1030.69552,617.756001 C1030.07635,619.665103 1029.76677,622.064344 1029.76677,624.953796 L1029.76677,662.800266 L1051.28276,662.800266 L1051.28276,610.171227 L1045.78767,610.171227 Z M1139.82338,712.797854 L1134.01871,712.797854 L1134.01871,667.985775 L1112.50272,667.985775 L1112.50272,712.797854 L1106.69804,712.797854 L1106.69804,627.507852 C1106.69804,624.927984 1106.80124,622.296559 1107.00763,619.613496 C1107.21402,616.930434 1107.94927,614.505394 1109.2134,612.338306 C1110.47754,610.171217 1112.46401,608.404034 1115.17287,607.036704 C1117.88173,605.669374 1121.73857,604.985719 1126.74352,604.985719 L1139.82338,604.985719 L1139.82338,712.797854 Z M1128.52362,610.171227 C1125.73736,610.171227 1123.33812,610.403412 1121.32582,610.867788 C1119.31353,611.332164 1117.64954,612.119012 1116.3338,613.228355 C1115.01807,614.337699 1114.05063,615.846899 1113.43147,617.756001 C1112.8123,619.665103 1112.50272,622.064344 1112.50272,624.953796 L1112.50272,662.800266 L1134.01871,662.800266 L1134.01871,610.171227 L1128.52362,610.171227 Z M1085.33987,659.679851 L1099.98498,605.038929 L1094.11218,605.038929 L1082.39342,648.761651 L1070.64095,604.913161 L1064.76815,604.913161 L1079.41326,659.554083 L1079.46707,659.554083 L1079.46707,712.515279 L1085.33987,712.515279 L1085.33987,659.679851 Z" id="SETAGAYA" stroke="#FFFFFF" stroke-width="2" sketch:type="MSShapeGroup"></path>
            <path d="M865.603309,508 C867.123373,508 868.403407,508.320008 869.44345,508.960035 C870.483493,509.600062 871.263514,510.440084 871.783535,511.480127 C872.303557,512.52017 872.563564,513.660201 872.563564,514.900252 C872.563564,516.140304 872.283556,517.360336 871.723533,518.560386 C871.563526,518.800396 871.363521,518.880398 871.123511,518.800395 C870.883501,518.720391 870.683496,518.560387 870.523489,518.320377 C870.363483,516.720311 869.623463,515.300273 868.303408,514.060221 C866.983353,512.82017 864.923299,512.200153 862.123182,512.200153 C859.083056,512.200153 856.182979,513.000175 853.422865,514.600241 C850.66275,516.200308 847.862676,519.000382 845.022558,523.000548 C842.18244,527.000714 839.302363,532.400857 836.382242,539.20114 C833.462121,546.001422 830.322038,554.60165 826.961898,565.002082 C828.801974,564.922079 830.742026,564.882078 832.782111,564.882078 L839.082341,564.882078 C839.482357,565.042084 839.662362,565.26209 839.62236,565.542102 C839.582359,565.822113 839.202349,566.042119 838.482319,566.202126 C836.482236,566.282129 834.482183,566.362131 832.4821,566.442135 C830.482017,566.522138 828.441962,566.642141 826.361876,566.802148 C826.121866,567.682184 825.841859,568.482206 825.521845,569.202236 C822.241709,579.682671 818.88162,588.462904 815.441477,595.543198 C812.001334,602.623492 808.481241,608.303642 804.881091,612.58382 C801.280942,616.863998 797.620845,619.904079 793.90069,621.704153 C790.180536,623.504228 786.400436,624.404252 782.560276,624.404252 C779.840163,624.404252 777.900112,623.804236 776.740064,622.604186 C775.580015,621.404136 775,620.004099 775,618.404033 C775,617.684003 775.160004,616.903982 775.480018,616.063947 C775.800031,615.223912 776.200041,614.483893 776.680061,613.843866 C776.920071,613.603856 777.140077,613.563855 777.340085,613.723862 C777.540094,613.883868 777.640096,614.083874 777.640096,614.323884 C777.320083,614.96391 777.20008,615.70393 777.280083,616.543965 C777.360087,617.384 777.700096,618.184021 778.300121,618.944052 C778.900145,619.704084 779.780169,620.344101 780.940217,620.864123 C782.100265,621.384144 783.600305,621.644151 785.440381,621.644151 C787.360461,621.644151 789.260511,621.404145 791.14059,620.924125 C793.020668,620.444105 794.900718,619.544081 796.780796,618.224026 C798.660874,616.903971 800.540924,615.043922 802.421002,612.643822 C804.30108,610.243723 806.241131,607.103639 808.241214,603.223478 C810.241297,599.343317 812.321352,594.643192 814.481442,589.122963 C816.641532,583.602734 818.881591,577.04256 821.201688,569.442244 C821.361694,569.042228 821.481697,568.662218 821.561701,568.302203 C821.641704,567.942188 821.761707,567.562178 821.921714,567.162161 C820.561657,567.322168 819.201621,567.502172 817.841565,567.702181 C816.481508,567.902189 815.121472,568.162196 813.761416,568.482209 C813.361399,568.402206 813.261397,568.202201 813.461405,567.882187 C813.661413,567.562174 814.021423,567.242166 814.541444,566.922152 C815.061466,566.602139 815.681482,566.302131 816.401512,566.022119 C817.121542,565.742108 817.80156,565.562103 818.441587,565.4821 C819.081613,565.402096 819.741631,565.342095 820.421659,565.302093 C821.101687,565.262091 821.801706,565.20209 822.521736,565.122087 C825.401855,556.481728 828.501938,548.66152 831.822076,541.66123 C835.142213,534.660939 838.642306,528.66078 842.322459,523.660572 C846.002612,518.660364 849.802713,514.800262 853.722876,512.080149 C857.643038,509.360036 861.603143,508 865.603309,508 Z M848.08267,564.522065 C850.242759,564.522065 851.842802,565.242084 852.882845,566.682143 C853.922888,568.122203 854.442902,570.002253 854.442902,572.32235 C854.442902,575.042462 853.922888,577.762535 852.882845,580.482648 C851.842802,583.202761 850.522767,585.662826 848.9227,587.862917 C847.322634,590.063009 845.582588,591.843056 843.70251,593.203112 C841.822431,594.563169 840.082385,595.243187 838.482319,595.243187 C836.562239,595.243187 835.042199,594.483167 833.922152,592.963103 C832.802106,591.44304 832.242091,589.282983 832.242091,586.482867 C832.242091,584.242774 832.682103,581.84271 833.562139,579.282604 C834.442176,576.722497 835.622207,574.342434 837.102268,572.142343 C838.58233,569.942252 840.262374,568.122203 842.142453,566.682143 C844.022531,565.242084 846.002583,564.522065 848.08267,564.522065 Z M840.882407,591.523051 C842.082456,591.523051 843.262488,591.10304 844.422536,590.263005 C845.582584,589.42297 846.602611,588.30294 847.482648,586.902882 C848.362684,585.502824 849.062703,583.882781 849.582724,582.042705 C850.102746,580.202628 850.362753,578.282577 850.362753,576.282494 C850.362753,573.882395 849.962742,571.982344 849.162709,570.582286 C848.362676,569.182228 847.042641,568.482209 845.202564,568.482209 C844.002514,568.482209 842.842484,568.90222 841.722437,569.742255 C840.602391,570.58229 839.622365,571.70232 838.78233,573.102378 C837.942295,574.502436 837.282277,576.14248 836.802257,578.022558 C836.322238,579.902636 836.082231,581.882688 836.082231,583.962775 C836.082231,589.002984 837.682274,591.523051 840.882407,591.523051 Z M870.163476,567.882187 C870.163476,569.082237 870.043473,570.482274 869.803463,572.082341 C869.563453,573.682407 869.243444,575.28245 868.843428,576.882516 C870.443494,573.042357 872.203541,570.022277 874.123621,567.822185 C876.0437,565.622094 878.123756,564.522065 880.363849,564.522065 C881.243885,564.522065 882.043906,564.762071 882.763936,565.242091 C883.483966,565.722111 883.843976,566.402129 883.843976,567.282165 C883.843976,567.922192 883.603969,568.742214 883.123949,569.742255 C882.64393,570.742297 882.163917,571.482316 881.683897,571.962336 C881.203877,572.28235 880.963871,572.162346 880.963871,571.602323 C880.963871,570.242267 880.043846,569.562249 878.20377,569.562249 C875.403653,569.562249 872.883587,571.662304 870.643494,575.862479 C868.403401,580.062653 866.283344,585.882808 864.283261,593.323117 C864.123255,594.12315 863.58324,594.643164 862.663202,594.883174 C861.743164,595.123184 860.963143,595.243187 860.323117,595.243187 C859.44308,595.243187 859.243075,594.803175 859.723095,593.923139 C860.443125,592.243069 861.123143,590.42302 861.763169,588.462939 C862.403196,586.502858 863.023212,584.522805 863.623237,582.522722 C864.223262,580.522639 864.723275,578.562587 865.123292,576.642507 C865.523309,574.722428 865.843317,572.962381 866.083327,571.362314 C866.40334,568.962215 866.00333,567.762183 864.883283,567.762183 C864.243257,567.762183 863.503237,568.122192 862.663202,568.842222 C861.823167,569.562252 861.043147,570.402275 860.323117,571.362314 C860.003103,571.522321 859.723096,571.502321 859.483086,571.302312 C859.243076,571.102304 859.203075,570.842297 859.363082,570.522284 C860.563131,569.002221 861.903167,567.622184 863.383228,566.382133 C864.86329,565.142081 866.243326,564.522065 867.52338,564.522065 C869.283453,564.522065 870.163476,565.642094 870.163476,567.882187 Z" id="for" sketch:type="MSShapeGroup"></path>
            <g id="path5131-+-CODE-3-+-CODE-2" sketch:type="MSLayerGroup" transform="translate(81.769927, 516.103366)">
                <path d="M288.490528,0.553556208 C288.136525,0.553556208 287.781658,0.556067453 287.428526,0.559766749 C287.074028,0.563480354 286.720125,0.570975334 286.366523,0.578398371 C285.660048,0.593228944 284.95773,0.617188117 284.25494,0.646714319 C231.366124,2.86872634 189.121877,46.4900957 189.121877,99.9222073 C189.121877,116.507388 193.192802,132.148224 200.387798,145.89884 C200.439724,145.998079 200.490808,146.097897 200.543062,146.196946 C200.555151,146.219862 200.568218,146.242355 200.580325,146.265262 C200.697546,146.487033 200.815469,146.708987 200.934326,146.92979 C201.085652,147.210902 201.239958,147.488732 201.393906,147.768213 C201.564549,148.078006 201.735537,148.385815 201.90938,148.693583 C202.03695,148.91943 202.165153,149.145784 202.294434,149.370532 C202.34074,149.451047 202.384541,149.532372 202.431066,149.612743 C202.585026,149.878668 202.74051,150.143334 202.896856,150.407693 C203.099561,150.750489 203.305027,151.092323 203.5117,151.432432 C203.607732,151.590442 203.706709,151.747001 203.803595,151.904433 C203.891286,152.046937 203.976056,152.190942 204.064438,152.33296 C204.25084,152.632455 204.440109,152.929919 204.629597,153.227278 C222.273255,180.915099 253.248335,199.290858 288.490528,199.290858 C323.731533,199.290858 354.701287,180.913539 372.345249,153.227278 C372.508559,152.97101 372.674847,152.715084 372.835881,152.457171 C372.861425,152.416267 372.884924,152.373904 372.910408,152.33296 C373.2825,151.735152 373.650015,151.131879 374.009674,150.525693 C374.189561,150.222501 374.367037,149.917998 374.54378,149.612743 C375.251184,148.39099 375.930901,147.152739 376.587058,145.89884 C383.782879,132.14761 387.859179,116.508411 387.859179,99.9222073 C387.859179,46.4900957 345.614931,2.86872693 292.726117,0.646714319 L292.726117,0.640503778 C292.593905,0.634949269 292.460968,0.633089088 292.328642,0.628082697 C292.109068,0.61972778 291.89026,0.610165933 291.670325,0.603240534 C291.4653,0.596882133 291.260799,0.589692215 291.055482,0.584608912 C291.03688,0.584137109 291.018191,0.58507038 290.999587,0.584608912 C290.706018,0.577505842 290.411887,0.570526784 290.11769,0.56597729 C290.004028,0.564219657 289.889867,0.561149166 289.77611,0.559766749 C289.701808,0.558824536 289.626872,0.560545601 289.552531,0.559766749 C289.198673,0.55622684 288.845374,0.553556208 288.490528,0.553556208 Z M288.449305,50.352049 C288.272857,50.352049 288.095978,50.3533007 287.919964,50.3551446 C287.74327,50.3569956 287.566872,50.3607314 287.390624,50.3644313 C287.038491,50.3718234 286.68843,50.3837655 286.338134,50.3984824 C259.976433,51.5060137 238.92037,73.2484841 238.92037,99.8809839 C238.92037,108.147638 240.949466,115.943598 244.535713,122.797403 C244.561595,122.846867 244.587057,122.89662 244.613102,122.94599 C244.619128,122.957412 244.625641,122.968623 244.631675,122.980041 C244.690103,123.09058 244.74888,123.201209 244.808122,123.311266 C244.883549,123.451382 244.96046,123.589863 245.037193,123.729166 C245.122249,123.883578 245.207475,124.037001 245.294125,124.190404 C245.35771,124.302975 245.421611,124.415798 245.486049,124.52782 C245.50913,124.567951 245.530962,124.608487 245.554152,124.648547 C245.630891,124.781093 245.70839,124.913013 245.786319,125.044778 C245.887354,125.21564 245.989766,125.386023 246.092779,125.555545 C246.140645,125.634303 246.189978,125.712338 246.23827,125.790808 C246.281978,125.861837 246.324231,125.933615 246.368284,126.004401 C246.461193,126.153681 246.555532,126.301948 246.649979,126.450162 C255.444217,140.250775 270.883319,149.409919 288.449305,149.409919 C306.014698,149.409919 321.451145,140.249997 330.245535,126.450162 C330.326935,126.322429 330.409818,126.194866 330.490084,126.066313 C330.502816,126.045925 330.514528,126.024809 330.527231,126.004401 C330.712695,125.706432 330.895877,125.405739 331.075144,125.103594 C331.164807,124.952472 331.253267,124.800697 331.341362,124.648547 C331.693958,124.039581 332.032754,123.422392 332.359806,122.797403 C335.946464,115.943292 337.97824,108.148149 337.97824,99.8809839 C337.97824,73.2484841 316.922176,51.506014 290.560476,50.3984824 L290.560476,50.3953869 C290.494576,50.3926183 290.428316,50.3916911 290.36236,50.3891957 C290.252916,50.3850314 290.143854,50.3802654 290.034231,50.3768135 C289.932039,50.3736443 289.830108,50.3700605 289.727771,50.3675268 C289.718499,50.3672917 289.709183,50.3677568 289.69991,50.3675268 C289.553585,50.3639864 289.40698,50.3605078 289.260341,50.3582402 C289.203688,50.3573641 289.146786,50.3558336 289.090085,50.3551446 C289.053051,50.354675 289.0157,50.3555328 288.978645,50.3551446 C288.80227,50.3533802 288.626173,50.352049 288.449305,50.352049 Z" id="path5131-path-2" sketch:type="MSShapeGroup"></path>
                <path d="M406.329174,3.8675999 L460.666314,3.8675999 C475.62879,3.8675999 488.206706,5.35507518 498.40044,8.33007036 C508.594173,11.3050656 517.584649,16.0737363 525.372136,22.6362257 C536.309619,31.8237108 544.796977,43.067274 550.834468,56.3672525 C556.871958,69.667231 559.890658,83.8857447 559.890658,99.0232202 C559.890658,115.910693 556.565713,131.288562 549.915724,145.15729 C543.265735,159.026017 533.859641,170.335205 521.697161,179.08519 C513.647174,184.772681 504.941068,188.841364 495.578583,191.29136 C486.216099,193.741356 471.778838,194.966335 452.26637,194.966335 L406.329174,194.966335 L406.329174,3.8675999 Z M424.835302,22.1112292 L424.835302,176.985204 L463.816294,176.985204 C488.141254,176.985204 506.865943,170.160318 519.990922,156.51034 C533.115901,142.860362 539.678292,123.523183 539.678292,98.4982237 C539.678292,85.9857439 537.447079,74.4359358 532.984586,63.848453 C528.522093,53.2609701 522.134699,44.3798677 513.822213,37.2048793 C507.609723,31.7798881 500.653588,27.9080774 492.953601,25.5893311 C485.253613,23.2705849 474.053799,22.1112292 459.353823,22.1112292 L424.835302,22.1112292 Z M604.515362,89.5732827 L684.839831,89.5732827 L684.839831,108.473158 L604.515362,108.473158 L604.515362,176.460208 L684.839831,176.460208 L684.839831,194.966335 L585.615488,194.966335 L585.615488,3.8675999 L684.839831,3.8675999 L684.839831,22.6362257 L604.515362,22.6362257 L604.515362,89.5732827 Z" id="CODE-3" sketch:type="MSShapeGroup"></path>
                <path d="M161.945687,53.3485224 C153.370701,41.4485417 143.78961,32.6986871 133.202127,27.0986962 C122.614644,21.4987052 110.539845,18.6987517 96.9773666,18.6987517 C75.714901,18.6987517 57.5370781,26.5736209 42.4433525,42.3235954 C27.3496269,58.0735699 19.8028774,76.7982588 19.8028774,98.4982237 C19.8028774,121.598186 27.3058777,141.066613 42.3121034,156.904087 C57.3183291,172.741562 75.5399013,180.66018 96.9773666,180.66018 C110.189845,180.66018 122.133397,177.903976 132.80838,172.391485 C143.483362,166.878994 152.758208,158.65413 160.633195,147.716648 L182.945548,147.716648 C174.195562,163.991622 162.470757,176.569538 147.770781,185.450773 C133.070804,194.332009 116.577328,198.77256 98.289858,198.77256 C70.2024034,198.77256 46.7746677,189.191469 28.0059481,170.029 C9.23722843,150.866531 -0.146990622,126.935679 -0.146990622,98.2357254 C-0.146990622,84.8482471 2.39046721,72.1609579 7.465459,60.1734773 C12.5404508,48.1859967 19.9778272,37.3799262 29.7778113,27.7549418 C38.8777966,18.6549565 49.0932519,11.764446 60.4244835,7.08320362 C71.7557152,2.40196119 84.0273863,0.0613750836 97.2398649,0.0613750836 C116.227334,0.0613750836 133.311425,4.69879802 148.492651,13.973783 C163.673876,23.248768 175.683052,36.3735499 184.520537,53.3485224 L161.945687,53.3485224 Z" id="CODE-2" sketch:type="MSShapeGroup"></path>
            </g>
        </g>
    </g>
</svg>